# generated from PmQm by Jehee Lee
:FULLY-SPECIFIED
:DEGREES
611
root 75.16307456 38.40759866 -76.17747337 4.512824935 59.96154208 3.575469962
RightUpLeg 6.513507306 -5.543100225 1.396386896
RightLeg 32.64397861 0 0
RightFoot -59.21426161 49.11773321 -104.7118817
RightToes 2.32829e-010 -1.59028e-015 9.93923e-017
Spine -10.80497685 3.879197811 6.711755758
Spine1 14.21047052 5.898573178 -10.27596106
HEad -9.356503806 -4.691262502 2.837931317
LeftShoulder1 9.93923e-017 0 1.22299e-017
LeftArm -11.25042111 49.76714594 -68.94589826
LeftForeArm -6.340785174 -3.82537775 -5.561190529
LeftHand 1.0097 7.20765 -5.05441
RightShoulder 1.98785e-016 -4.96962e-017 1.55301e-017
RightArm 28.6562778 -30.59627422 88.18877302
RightForeArm -51.86194915 22.11632745 -20.82756746
RightHand 1.16096 -10.3732 -5.78301
LeftUpLeg -27.0801665 -2.031471821 0.2848423122
LeftLeg 15.42996017 0 0
LeftFoot 0.9040297772 11.33064503 -2.789428098
LeftToes 8.82235e-011 9.04645e-011 1.87288e-011
612
root 76.38826795 38.40860858 -75.98973059 6.454854778 56.0952631 6.025200955
RightUpLeg 1.395690749 -3.907442429 -0.6336849527
RightLeg 43.4225031 -3.023730751 -5.711147773
RightFoot -61.02154006 61.77458919 -103.2077491
RightToes 2.32829e-010 -1.59028e-015 9.93923e-017
Spine -8.615737823 2.739157942 2.825787768
Spine1 13.05120699 4.637527439 -9.763503017
HEad -10.24917151 -4.023258346 2.809232198
LeftShoulder1 9.93923e-017 0 1.22299e-017
LeftArm -9.244655508 44.94620471 -71.2246392
LeftForeArm -7.754399472 -4.268921786 -6.17987125
LeftHand 0.992905 7.03592 -5.03757
RightShoulder 1.98785e-016 -4.96962e-017 1.55301e-017
RightArm 26.74857932 -33.49647376 89.80611261
RightForeArm -50.5587284 20.74354785 -16.03337121
RightHand 1.09086 -10.2491 -4.27313
LeftUpLeg -26.01169616 -2.065588355 -0.3187407498
LeftLeg 20.74028921 0 0
LeftFoot -3.292192854 13.24894881 -3.349755432
LeftToes 8.82235e-011 9.04645e-011 1.87288e-011
613
root 77.61266801 38.53700323 -75.76134962 6.700293068 51.41817343 6.756572287
RightUpLeg -3.799279015 -1.566533903 -1.590123655
RightLeg 51.52502751 -4.380168899 -11.30918545
RightFoot -47.93630328 67.71479628 -86.32996566
RightToes 2.32829e-010 -1.59028e-015 9.93923e-017
Spine -7.156561866 2.192774118 -0.3495186524
Spine1 12.58159011 3.779607961 -8.859403652
HEad -10.95362685 -3.058958446 2.324656645
LeftShoulder1 9.93923e-017 0 1.22299e-017
LeftArm -6.599681884 39.93016714 -73.60455984
LeftForeArm -10.45827374 -5.325537262 -6.581468644
LeftHand 0.970123 6.82072 -4.29005
RightShoulder 1.98785e-016 -4.96962e-017 1.55301e-017
RightArm 20.68931634 -36.20283342 90.30526425
RightForeArm -43.36041459 19.73561349 -9.223474288
RightHand 1.03939 -10.2002 -2.94224
LeftUpLeg -23.87338151 -2.285390271 -0.5028295909
LeftLeg 23.97109053 0 0
LeftFoot -6.278082276 16.47425273 -4.761008735
LeftToes 8.82235e-011 9.04645e-011 1.87288e-011
614
root 78.91359898 38.80596671 -75.47000771 5.660222388 46.94703518 6.018029302
RightUpLeg -8.722111945 -0.2357979299 -1.305151671
RightLeg 56.39146485 -3.586780469 -14.08519989
RightFoot -29.39394554 67.06263966 -62.76325013
RightToes 2.32829e-010 -1.59028e-015 9.93923e-017
Spine -6.580303668 1.426715935 -2.500291036
Spine1 12.02732856 2.53177302 -7.099113957
HEad -10.67315642 -1.707370066 1.845580681
LeftShoulder1 9.93923e-017 0 1.22299e-017
LeftArm -3.809392417 36.06141893 -75.4896582
LeftForeArm -14.22375103 -8.752497789 -5.514277912
LeftHand 0.942205 6.57551 -3.70458
RightShoulder 1.98785e-016 -4.96962e-017 1.55301e-017
RightArm 18.87628383 -39.36248856 90.13882366
RightForeArm -38.50217185 18.41094486 -4.684044826
RightHand 1.03827 -10.3208 -2.49664
LeftUpLeg -20.66368135 -2.233522964 -0.4809256262
LeftLeg 24.74724444 0 0
LeftFoot -8.426454518 19.71855067 -6.407893661
LeftToes 8.82235e-011 9.04645e-011 1.87288e-011
615
root 80.11939443 39.10022876 -75.03530897 4.281455701 43.25672917 4.720680426
RightUpLeg -12.83046874 -0.06875970534 -0.2594633488
RightLeg 57.68934966 -1.411683948 -12.88362607
RightFoot -18.5132975 61.04011601 -47.81793489
RightToes 2.32829e-010 -1.59028e-015 9.93923e-017
Spine -6.315187585 0.1881540979 -4.080899583
Spine1 11.21637537 0.7403442811 -4.786584006
HEad -9.704885422 -0.1793111848 1.644131506
LeftShoulder1 9.93923e-017 0 1.22299e-017
LeftArm 3.522023335 33.1756349 -76.94828246
LeftForeArm -23.2206879 -14.72302294 -1.994601734
LeftHand 0.92793 6.45217 -3.57146
RightShoulder 1.98785e-016 -4.96962e-017 1.55301e-017
RightArm 20.91748875 -43.21982022 89.5968458
RightForeArm -37.60342559 17.83731527 -3.186553323
RightHand 1.04716 -10.4116 -2.45404
LeftUpLeg -17.07986023 -1.862175964 -0.2399460263
LeftLeg 24.01923016 0 0
LeftFoot -10.20746976 22.10827549 -7.902263071
LeftToes 8.82235e-011 9.04645e-011 1.87288e-011
616
root 80.81331102 39.3243055 -74.16385356 3.110629052 39.61089975 3.564992594
RightUpLeg -16.53349406 -0.114892444 0.8201335807
RightLeg 56.33677395 0.8127024416 -10.07880115
RightFoot -11.941423 53.99469954 -36.96658012
RightToes 2.32829e-010 -1.59028e-015 9.93923e-017
Spine -6.224798102 -1.022952818 -5.439737597
Spine1 10.74555347 -0.9501929401 -2.762801687
HEad -8.939168264 1.155813541 1.581018609
LeftShoulder1 9.93923e-017 0 1.22299e-017
LeftArm 16.56862281 30.40327029 -78.14285115
LeftForeArm -38.25626847 -20.89606089 4.907431017
LeftHand 0.925915 6.44464 -3.3863
RightShoulder 1.98785e-016 -4.96962e-017 1.55301e-017
RightArm 22.97534893 -47.46687037 88.38872627
RightForeArm -38.47724037 17.9757794 -3.561399452
RightHand 1.02044 -10.2376 -2.25741
LeftUpLeg -13.54906711 -1.04460618 0.8072406973
LeftLeg 22.64495938 0 0
LeftFoot -11.27404251 24.0126887 -9.913157817
LeftToes 8.82235e-011 9.04645e-011 1.87288e-011
617
root 81.1681265 39.45480002 -72.99601665 2.282484659 35.62157887 2.787250297
RightUpLeg -19.96089209 -0.133629779 1.592471538
RightLeg 53.00394703 2.407436709 -7.667801045
RightFoot -7.911646602 46.46847829 -27.31410867
RightToes 2.32829e-010 -1.59028e-015 9.93923e-017
Spine -6.476834001 -1.996266867 -6.638626845
Spine1 10.81716567 -2.272585215 -1.176215133
HEad -8.783275448 2.163025137 1.510925589
LeftShoulder1 9.93923e-017 0 1.22299e-017
LeftArm 28.24911652 27.30387139 -78.72481338
LeftForeArm -50.97349422 -24.47461644 12.78925711
LeftHand 0.913312 6.34459 -3.16304
RightShoulder 1.98785e-016 -4.96962e-017 1.55301e-017
RightArm 24.95092971 -51.58391205 86.49370238
RightForeArm -40.64563351 18.51131628 -5.096103606
RightHand 0.9969 -10.0451 -2.20697
LeftUpLeg -9.910214856 -0.01981777885 2.164182358
LeftLeg 20.89601024 0 0
LeftFoot -11.80571643 26.04922559 -12.27529933
LeftToes 8.82235e-011 9.04645e-011 1.87288e-011
618
root 81.45353579 39.52211482 -71.75839088 1.668223663 31.77221509 2.213546309
RightUpLeg -22.96379878 -0.7701222598 2.098985469
RightLeg 47.90927691 3.464021519 -5.844111504
RightFoot -6.02267939 38.69393587 -19.1586381
RightToes 2.32829e-010 -1.59028e-015 9.93923e-017
Spine -6.788023987 -2.989844041 -7.723762149
Spine1 10.93477683 -3.545371936 0.5403474714
HEad -8.843318695 2.986940174 1.472876773
LeftShoulder1 9.93923e-017 0 1.22299e-017
LeftArm 31.88723707 23.92340025 -78.45912758
LeftForeArm -53.63688285 -26.43298621 17.1456967
LeftHand 0.89027 6.12658 -3.34082
RightShoulder 1.98785e-016 -4.96962e-017 1.55301e-017
RightArm 27.40953019 -55.24304649 84.25524685
RightForeArm -43.19013309 19.08278336 -7.056815929
RightHand 1.02418 -10.1508 -2.66158
LeftUpLeg -5.921405645 0.7238815292 3.239781504
LeftLeg 18.43261087 0 0
LeftFoot -12.28730786 28.38074514 -14.44360639
LeftToes 8.82235e-011 9.04645e-011 1.87288e-011
